<?xml version="1.0" standalone="no"?>
<!DOCTYPE svg PUBLIC "-//W3C//DTD SVG 20010904//EN"
 "http://www.w3.org/TR/2001/REC-SVG-20010904/DTD/svg10.dtd">
<svg version="1.0" xmlns="http://www.w3.org/2000/svg"
 width="290.891502pt" height="400.161600pt" viewBox="0 0 290.891502 400.161600"
 preserveAspectRatio="xMidYMid meet">
<metadata>
Created by potrace 1.12, written by Peter Selinger 2001-2015
</metadata>
<g transform="translate(-50.087000,486.973769) scale(0.100000,-0.100000)"
fill="#0F62FE" stroke="none">
<path d="M1937 4828 c-51 -90 -197 -379 -262 -518 -192 -411 -266 -687 -252
-933 8 -132 29 -213 89 -335 114 -239 328 -371 536 -333 109 20 187 63 273
151 225 230 276 588 142 1005 -53 168 -169 431 -321 730 -154 303 -161 311
-205 233z m78 -200 c31 -24 255 -470 319 -637 158 -405 171 -659 45 -901 -47
-91 -143 -190 -222 -228 -109 -54 -249 -53 -363 3 -106 52 -212 184 -259 323
-79 233 -44 497 117 871 95 222 256 538 289 565 37 32 39 32 74 4z"/>
<path d="M985 2183 c-269 -16 -426 -68 -471 -155 -83 -161 244 -560 714 -872
425 -282 784 -353 1152 -229 366 123 852 515 992 800 44 89 50 173 16 222 -68
99 -306 156 -753 181 -940 51 -1434 67 -1650 53z"/>
</g>
</svg>
